<?xml version="1.0" encoding="UTF-8" standalone="no"?>
<!-- Created with Inkscape (http://www.inkscape.org/) -->

<svg
   width="292.79703"
   height="861.20508"
   viewBox="0 0 77.469214 227.8605"
   version="1.1"
   id="svg1"
   xmlns="http://www.w3.org/2000/svg"
   xmlns:svg="http://www.w3.org/2000/svg">
  <defs
     id="defs1" />
  <g
     id="layer1"
     transform="translate(-32.889771,-4.572187)">
    <path
       id="path11"
       style="fill:none;fill-opacity:1;stroke:#000000;stroke-width:5.29167;stroke-dasharray:none;stroke-opacity:1"
       d="m 71.454443,7.2180203 c -8.346788,1.226e-4 -15.113167,6.7665007 -15.11329,15.1132887 1.23e-4,8.346788 6.766502,15.113166 15.11329,15.113289 8.34699,1.62e-4 15.113683,-6.766299 15.113806,-15.113289 C 86.568126,13.984319 79.801433,7.2178579 71.454443,7.2180203 Z M 71.424993,54.217218 35.928452,118.38798 c 12.205571,21.16252 23.72637,42.75382 35.496024,64.17076 L 107.3272,118.38798 Z m 0.140554,145.343062 c -8.346788,1.2e-4 -15.113166,6.7665 -15.113289,15.11329 1.23e-4,8.34679 6.766501,15.11317 15.113289,15.11329 8.34699,1.6e-4 15.113683,-6.7663 15.113806,-15.11329 -1.23e-4,-8.34699 -6.766816,-15.11345 -15.113806,-15.11329 z" />
  </g>
</svg>
